<svg width="28" height="28" viewBox="0 0 28 28" fill="none" xmlns="http://www.w3.org/2000/svg">
<g id="icon-old">
<g id="path">
<path fill-rule="evenodd" clip-rule="evenodd" d="M20.7083 21C20.7083 23.4162 18.7496 25.375 16.3333 25.375H7C4.58375 25.375 2.625 23.4162 2.625 21V11.6667C2.625 9.25042 4.58375 7.29167 7 7.29167H16.3333C18.7496 7.29167 20.7083 9.25042 20.7083 11.6667V21ZM16.3333 23.625C17.7831 23.625 18.9583 22.4497 18.9583 21V11.6667C18.9583 10.2169 17.7831 9.04167 16.3333 9.04167H7C5.55025 9.04167 4.375 10.2169 4.375 11.6667V21C4.375 22.4497 5.55025 23.625 7 23.625H16.3333Z" fill="#2684FC"/>
<path fill-rule="evenodd" clip-rule="evenodd" d="M21 18.9583C22.4497 18.9583 23.625 17.7831 23.625 16.3333V7C23.625 5.55025 22.4497 4.375 21 4.375H11.6667C10.2169 4.375 9.04167 5.55025 9.04167 7V8.16667C9.04167 8.64992 8.64992 9.04167 8.16667 9.04167C7.68342 9.04167 7.29167 8.64992 7.29167 8.16667V7C7.29167 4.58375 9.25042 2.625 11.6667 2.625H21C23.4162 2.625 25.375 4.58375 25.375 7V16.3333C25.375 18.7496 23.4162 20.7083 21 20.7083H19.8333C19.3501 20.7083 18.9583 20.3166 18.9583 19.8333C18.9583 19.3501 19.3501 18.9583 19.8333 18.9583H21Z" fill="#2684FC"/>
</g>
</g>
</svg>
