<svg width="24" height="24" viewBox="0 0 24 24" fill="none" xmlns="http://www.w3.org/2000/svg">
<mask id="mask0_5080_1138" style="mask-type:alpha" maskUnits="userSpaceOnUse" x="2" y="2" width="20" height="20">
<path d="M2 7V11H22V7H2Z" fill="black"/>
<path opacity="0.7" fill-rule="evenodd" clip-rule="evenodd" d="M7.09091 2H6V4C6 5.65685 7.34315 7 9 7H12H15C16.6569 7 18 5.65685 18 4V2H15C13.3431 2 12 3.34315 12 5C12 3.34315 10.6569 2 9 2H7.09091Z" fill="black"/>
<path opacity="0.8" fill-rule="evenodd" clip-rule="evenodd" d="M10 11H3V22H10V11ZM14 11V19C14 20.6569 12.6569 22 11 22H17C19.2091 22 21 20.2091 21 18V11H14Z" fill="black"/>
<path opacity="0.3" d="M14 11H10V22H11C12.6569 22 14 20.6569 14 19V11Z" fill="black"/>
</mask>
<g mask="url(#mask0_5080_1138)">
<path d="M0 0H24V24H0V0Z" fill="#3D91FF"/>
</g>
</svg>
