<svg width="165" height="95" viewBox="0 0 165 95" fill="none" xmlns="http://www.w3.org/2000/svg">
<g id="Frame 1116606518" clip-path="url(#clip0_184_1853)">
<g id="Group 1116602056">
<g id="Group">
<g id="Group_2">
<path id="Vector" d="M91.5831 54.1777C93.5713 54.8692 86.1373 59.537 84.1492 60.4015L83.0687 55.0421C83.0254 55.0421 87.7797 52.881 91.5831 54.1777Z" fill="#0F062C"/>
<path id="Vector_2" d="M84.7546 53.7887L90.8488 76.0042C91.281 77.6034 92.4912 78.9 94.0471 79.4618C98.1963 80.9314 106.797 84.0865 113.799 87.2416H81.9453L72.7393 58.4565L84.7546 53.7887Z" fill="#C47841"/>
<path id="Vector_3" d="M72.7384 38.4453C74.7698 38.4453 79.9562 36.4139 82.8953 39.8716C85.8343 43.3292 88.0818 52.7946 91.5826 54.1777C87.0877 54.1777 76.9308 60.4015 76.9308 60.4015C76.9308 60.4015 74.424 69.6939 69.6697 70.8177C68.2002 77.4737 67.9409 85.8585 70.6206 89.5323C61.1552 89.3162 54.4565 92.3848 47.5412 92.3848C41.4903 92.3848 28.6537 96.3611 26.3629 91.0882C23.5536 84.6483 28.9125 86.3339 30.0362 81.061C31.2032 75.7881 32.7591 52.4056 39.0261 43.0267C45.2932 33.6478 52.6839 35.0741 52.6839 35.0741C52.6839 35.0741 64.9586 40.0445 72.7384 38.4453Z" fill="#6B41FF"/>
<path id="Vector_4" d="M36.9521 57.3077C38.072 58.5304 41.2914 59.458 45.1641 59.7531V53.3866C45.1641 53.3866 40.9181 52.8806 39.0051 53.9768C37.0921 55.1152 36.9521 57.3077 36.9521 57.3077Z" fill="#0F062C"/>
<path id="Vector_5" d="M55.8832 57.6786L59.4706 77.3872C59.4706 77.3872 65.9106 78.9864 72.7394 80.7153C83.4151 80.7153 85.1869 80.5424 88.9904 87.2416L83.0691 89.3594H56.5748C52.9874 89.3594 49.8755 86.9823 48.8815 83.5678L40.2373 53.7887L55.8832 57.6786Z" fill="#C47841"/>
<path id="Vector_6" d="M52.6845 35.074C46.4607 33.1723 39.5454 35.0308 38.5513 40.3038C37.6005 45.5767 38.5513 47.3488 37.8598 48.0835C37.1683 48.775 37.2547 51.3251 37.8598 52.1895C38.4649 53.0539 35.7852 55.4311 37.3844 57.3328C39.5022 51.3683 47.7574 58.9752 55.8829 57.7218L52.6845 42.2919V35.074Z" fill="#6B41FF"/>
<path id="Vector 888" d="M38.0332 44.8419C37.601 48.3716 36.8663 55.82 37.3849 57.376" stroke="#0F062C" stroke-width="0.432208"/>
<path id="Vector_7" d="M65.4347 28.3316L60.4643 34.5122C59.5567 35.6791 58.044 36.1978 56.6177 35.8952C55.4939 35.6359 54.0676 35.3334 52.6846 35.074C55.3643 37.0622 56.1422 43.8047 65.7373 44.453C69.9729 44.7555 73.3441 42.0758 75.1594 40.2173C75.8509 39.5258 75.3323 38.3588 74.3814 38.4021L69.6704 38.6182L70.2323 34.685L65.4347 28.3316Z" fill="#C47841"/>
<path id="Vector_8" d="M70.2322 36.2842C70.2322 36.2842 65.3915 36.9325 61.8906 32.7401L65.4347 28.3316L70.2322 36.2842Z" fill="#2E344B"/>
</g>
</g>
<path id="Vector_9" d="M70.6645 4.95559C65.6038 -2.49453 51.2943 -1.27224 48.2114 8.0404C45.5357 16.3054 47.5134 28.8774 40.126 27.1313C39.428 26.9567 38.9044 27.6552 39.1953 28.2372C42.5109 35.8619 53.2139 37.8409 57.402 28.0044C61.9392 17.5277 70.6645 4.95559 70.6645 4.95559Z" fill="#0F062C"/>
<g id="Group_3">
<g id="Group_4">
<g id="Group_5">
<path id="Vector_10" d="M19.7801 89.4026H36.5498V69.6939H19.7801L19.7801 89.4026Z" fill="#FFB3FF"/>
<path id="Vector_11" d="M13.6133 79.5394C13.6133 82.9539 16.3794 85.72 19.7939 85.72C23.2083 85.72 25.9744 82.9539 25.9744 79.5394C25.9744 76.125 23.2083 73.3588 19.7939 73.3588C16.3362 73.3588 13.6133 76.125 13.6133 79.5394ZM15.7743 79.5394C15.7743 77.3352 17.5464 75.5631 19.7506 75.5631C21.9549 75.5631 23.727 77.3352 23.727 79.5394C23.727 81.7437 21.9549 83.5157 19.7506 83.5157C17.5896 83.5157 15.7743 81.7437 15.7743 79.5394Z" fill="#FFB3FF"/>
</g>
<path id="Vector_12" d="M19.7502 75.5631C19.7502 75.5631 15.7739 76.0817 15.7739 79.5394C15.7739 82.9971 19.7502 83.5157 19.7502 83.5157" stroke="#0F062C" stroke-width="0.332714" stroke-miterlimit="10" stroke-linecap="round"/>
</g>
</g>
<g id="Group_6">
<g id="Group_7">
<g id="Group_8">
<g id="Vector_13">
<path d="M28.1785 25.1332V26.4299H26.8818" fill="#0F062C"/>
<path d="M28.1785 25.1332V26.4299H26.8818" stroke="#0F062C" stroke-width="0.432208" stroke-miterlimit="10" stroke-linecap="round"/>
</g>
<path id="Vector_14" d="M24.0726 26.4299H14.3911" stroke="#0F062C" stroke-width="0.432208" stroke-miterlimit="10" stroke-linecap="round" stroke-dasharray="2.77 2.77"/>
<g id="Vector_15">
<path d="M13.0081 26.4299H11.7114V25.1332" fill="#0F062C"/>
<path d="M13.0081 26.4299H11.7114V25.1332" stroke="#0F062C" stroke-width="0.432208" stroke-miterlimit="10" stroke-linecap="round"/>
</g>
<path id="Vector_16" d="M11.7114 22.3671V12.6857" stroke="#0F062C" stroke-width="0.432208" stroke-miterlimit="10" stroke-linecap="round" stroke-dasharray="2.77 2.77"/>
<g id="Vector_17">
<path d="M11.7114 11.3026V10.0059H13.0081" fill="#0F062C"/>
<path d="M11.7114 11.3026V10.0059H13.0081" stroke="#0F062C" stroke-width="0.432208" stroke-miterlimit="10" stroke-linecap="round"/>
</g>
<path id="Vector_18" d="M15.7739 10.006H25.4554" stroke="#0F062C" stroke-width="0.432208" stroke-miterlimit="10" stroke-linecap="round" stroke-dasharray="2.77 2.77"/>
<g id="Vector_19">
<path d="M26.8818 10.006H28.1785V11.3026" fill="#0F062C"/>
<path d="M26.8818 10.006H28.1785V11.3026" stroke="#0F062C" stroke-width="0.432208" stroke-miterlimit="10" stroke-linecap="round"/>
</g>
<path id="Vector_20" d="M28.1787 14.0687V23.7502" stroke="#0F062C" stroke-width="0.432208" stroke-miterlimit="10" stroke-linecap="round" stroke-dasharray="2.77 2.77"/>
</g>
</g>
<g id="Group_9">
<path id="Vector_21" d="M21.2692 22.222C21.473 22.3035 21.7022 22.3483 21.9978 22.3623V22.54H17.8918V22.3626C18.0899 22.3539 18.2636 22.3324 18.4127 22.2962C18.613 22.2476 18.7845 22.169 18.909 22.0445C19.1389 21.8146 19.2316 21.4883 19.2316 21.0705V14.4145V14.1984H19.0155H18.0647C17.6586 14.1984 17.3428 14.2437 17.0783 14.2878C16.7403 14.3441 16.4786 14.5671 16.2857 14.8565C16.1079 15.1232 15.9818 15.5223 15.9531 16.0137H15.7308V13.8958H24.202V16.0569H23.9658C23.9082 15.5729 23.7786 15.1649 23.5543 14.8903C23.3651 14.61 23.1088 14.3904 22.8181 14.3322C22.5982 14.2883 22.3221 14.2416 22.041 14.2416H20.874H20.6579V14.4577V21.0705C20.6579 21.3518 20.7045 21.5911 20.7555 21.7439C20.8255 21.9541 21.0172 22.1212 21.2692 22.222Z" fill="#0F062C" stroke="#0F062C" stroke-width="0.432208"/>
</g>
</g>
<g id="Group_10">
<g id="Group_11">
<path id="Vector_22" d="M81.4265 27.2942C80.9943 31.6163 77.5798 35.5926 71.6586 33.907L70.578 41.3842C70.578 41.3842 68.2009 43.1131 63.6195 42.3351C58.6923 41.5139 57.6982 39.0935 57.6982 39.0935L60.594 23.8366C60.205 23.8798 59.7728 23.7934 59.7728 23.7934C59.7728 23.7934 56.8338 23.2747 58.2601 18.9958C59.6 14.9763 61.6746 16.489 61.6746 16.489L62.4958 13.2907C62.4958 13.2907 64.1814 6.98045 74.0789 8.40674C81.729 9.48726 82.0316 16.1433 82.0316 16.1433C82.0316 16.1433 81.7722 23.6637 81.4265 27.2942Z" fill="#C47841"/>
<g id="Group_12">
<g id="Clip path group">
<mask id="mask0_184_1853" style="mask-type:luminance" maskUnits="userSpaceOnUse" x="77" y="16" width="5" height="4">
<g id="SVGID_2_">
<path id="Vector_23" d="M81.9883 16.1865C81.9883 16.1865 81.9883 16.1865 81.8586 19.3848C81.8586 19.3848 77.9688 19.7306 77.8823 18.1746C77.8823 18.1746 78.2713 15.7111 81.9883 16.1865Z" fill="white"/>
</g>
</mask>
<g mask="url(#mask0_184_1853)">
<path id="Vector_24" d="M84.6681 19.817C84.452 19.2984 84.1494 18.9094 83.8037 18.5636C83.4579 18.2178 83.0257 17.9585 82.5503 17.7424C82.0748 17.5695 81.5994 17.4399 81.124 17.3966C80.8646 17.3534 80.6485 17.3966 80.3892 17.3966C80.1299 17.4399 79.9138 17.4399 79.6977 17.5263C79.3087 17.6127 79.0494 18.0017 79.0926 18.4339C79.1358 18.8229 79.4816 19.1255 79.8273 19.0823H79.8706C80.2595 19.039 80.6485 18.9958 80.9943 18.9958C81.3833 18.9958 81.7291 19.039 82.0748 19.1255C82.4206 19.2119 82.7664 19.3416 83.1121 19.5577C83.4579 19.7306 83.7604 19.9899 84.0198 20.2492L84.063 20.2924C84.1926 20.4221 84.4087 20.4221 84.5384 20.2492C84.7113 20.1196 84.7545 19.9467 84.6681 19.817Z" fill="#0F062C"/>
</g>
</g>
</g>
<g id="Group_13">
<g id="Clip path group_2">
<mask id="mask1_184_1853" style="mask-type:luminance" maskUnits="userSpaceOnUse" x="76" y="19" width="6" height="7">
<g id="SVGID_4_">
<path id="Vector_25" d="M81.8586 19.7306C81.8586 19.7306 81.8154 22.1077 81.556 25.6951C81.556 25.6951 78.3577 25.8247 77.1907 24.3984C76.6721 23.7501 76.6289 22.6264 76.7153 20.984C76.6721 20.984 78.0119 18.9094 81.8586 19.7306Z" fill="white"/>
</g>
</mask>
<g mask="url(#mask1_184_1853)">
<g id="Group_14">
<path id="Vector_26" d="M84.4087 22.8857C84.4087 22.8857 81.2536 18.6501 77.5366 22.3671C77.5366 22.3671 78.401 24.4417 80.6485 24.8739C82.896 25.3061 84.4087 22.8857 84.4087 22.8857Z" fill="white"/>
<g id="Group_15">
<g id="Group_16">
<g id="Clip path group_3">
<mask id="mask2_184_1853" style="mask-type:luminance" maskUnits="userSpaceOnUse" x="77" y="20" width="8" height="5">
<g id="SVGID_6_">
<path id="Vector_27" d="M84.4087 22.8857C84.4087 22.8857 81.2536 18.6501 77.5366 22.3671C77.5366 22.3671 78.401 24.4417 80.6485 24.8739C82.896 25.3061 84.4087 22.8857 84.4087 22.8857Z" fill="white"/>
</g>
</mask>
<g mask="url(#mask2_184_1853)">
<path id="Vector_28" d="M82.68 24.2688C82.5071 25.479 81.3834 26.3002 80.2164 26.1273C79.0062 25.9544 78.185 24.8306 78.3579 23.6637C78.5308 22.4535 79.6545 21.6323 80.8215 21.8052C82.0317 21.9349 82.8529 23.0586 82.68 24.2688Z" fill="#0F062C"/>
</g>
</g>
</g>
</g>
<g id="Group_17">
<path id="Vector_29" d="M77.4929 22.2806C77.8386 21.6755 78.3573 21.2001 79.0056 20.8543C79.6107 20.5086 80.3887 20.3357 81.1234 20.4221C81.8582 20.5086 82.5497 20.8111 83.1116 21.2433C83.4141 21.4594 83.6302 21.7187 83.8895 21.9781C84.1057 22.2374 84.2785 22.5399 84.4514 22.8425C84.4514 22.8857 84.4514 22.9289 84.4082 22.9289C84.365 22.9289 84.365 22.9289 84.3218 22.9289C84.0192 22.756 83.7599 22.5399 83.5006 22.3671L83.1116 22.1077C82.9819 22.0213 82.8522 21.9349 82.7226 21.8484C82.5929 21.8052 82.4633 21.7187 82.2904 21.6323C82.1607 21.5459 81.9878 21.5459 81.8582 21.4594C81.7285 21.4162 81.5988 21.373 81.426 21.3298C81.2963 21.3298 81.1234 21.2433 80.9937 21.2433C79.8268 21.1137 78.6598 21.6323 77.5793 22.3671C77.5361 22.4103 77.4929 22.3671 77.4929 22.3671C77.4496 22.3238 77.4496 22.3238 77.4929 22.2806Z" fill="#0F062C"/>
</g>
</g>
</g>
</g>
</g>
<g id="Group_18">
<path id="Vector_30" d="M77.0178 21.9781C76.8882 24.0959 77.5797 24.5714 78.0119 24.9171C78.0119 24.9171 78.4441 25.2629 78.1848 25.7815C77.9687 26.257 77.4068 26.6459 76.9746 26.5163" stroke="#0F062C" stroke-width="0.433159" stroke-miterlimit="10" stroke-linecap="round" stroke-linejoin="round"/>
<path id="Vector_31" d="M75.9369 26.0841C75.9369 26.0841 75.7208 25.6951 75.2021 25.9976" stroke="#0F062C" stroke-width="0.433159" stroke-miterlimit="10" stroke-linecap="round" stroke-linejoin="round"/>
<path id="Vector_32" d="M74.6407 26.1273C73.6466 25.1764 74.9432 24.4849 74.9432 24.4849" stroke="#0F062C" stroke-width="0.433159" stroke-miterlimit="10" stroke-linecap="round" stroke-linejoin="round"/>
</g>
<path id="Vector_33" d="M71.3126 36.3706C66.8176 35.7223 64.1812 29.9307 64.1812 29.9307C65.521 30.968 67.3363 32.5239 71.6151 33.907L71.3126 36.3706Z" fill="#0F062C"/>
<path id="Vector_34" d="M60.8967 22.3239C60.8967 22.3239 60.2052 21.7188 60.5509 21.0704C60.8967 20.4654 61.4153 20.7247 61.545 20.0331" stroke="#0F062C" stroke-width="0.433159" stroke-miterlimit="10" stroke-linecap="round" stroke-linejoin="round"/>
<path id="Vector_35" d="M61.1993 17.6992C61.1993 17.6992 60.0323 16.9213 59.4272 19.2984" stroke="#0F062C" stroke-width="0.433159" stroke-miterlimit="10" stroke-linecap="round" stroke-linejoin="round"/>
<path id="Vector_36" d="M68.8924 17.5695C69.2381 17.1373 69.6271 16.8348 70.0593 16.6187C70.4916 16.4026 70.967 16.2297 71.4856 16.1865C71.9611 16.1433 72.4797 16.1433 72.9551 16.2729C73.2145 16.3161 73.4306 16.4026 73.6467 16.489C73.8628 16.5755 74.0789 16.6619 74.295 16.7916C74.6407 16.9645 74.7704 17.4399 74.5975 17.8289C74.4247 18.1746 74.0357 18.3475 73.6899 18.2179L73.6467 18.1746C73.3009 18.045 72.9551 17.8721 72.6094 17.7857C72.2636 17.656 71.9178 17.6128 71.5289 17.6128C71.1831 17.5695 70.7941 17.656 70.4483 17.7424C70.1026 17.8289 69.7136 18.0018 69.411 18.1746L69.3678 18.2179C69.1949 18.3043 68.9788 18.2611 68.8924 18.045C68.7627 17.8289 68.8059 17.656 68.8924 17.5695Z" fill="#0F062C"/>
<g id="Group_19">
<path id="Vector_37" d="M67.855 20.5518C67.855 20.5518 72.0474 17.3535 74.5974 21.9781C74.5974 21.9781 73.2144 23.7502 70.9237 23.5341C68.633 23.3179 67.855 20.5518 67.855 20.5518Z" fill="white"/>
<g id="Group_20">
<g id="Group_21">
<g id="Clip path group_4">
<mask id="mask3_184_1853" style="mask-type:luminance" maskUnits="userSpaceOnUse" x="67" y="19" width="8" height="5">
<g id="SVGID_8_">
<path id="Vector_38" d="M67.855 20.5518C67.855 20.5518 72.0474 17.3535 74.5974 21.9781C74.5974 21.9781 73.2144 23.7502 70.9237 23.5341C68.633 23.3179 67.855 20.5518 67.855 20.5518Z" fill="white"/>
</g>
</mask>
<g mask="url(#mask3_184_1853)">
<path id="Vector_39" d="M69.1519 22.3239C68.979 23.5341 69.8002 24.6146 71.0104 24.7875C72.2205 24.9604 73.3011 24.1392 73.474 22.929C73.6468 21.7188 72.8256 20.6383 71.6155 20.4654C70.4485 20.2925 69.3248 21.1569 69.1519 22.3239Z" fill="#0F062C"/>
</g>
</g>
</g>
</g>
<g id="Group_22">
<path id="Vector_40" d="M74.511 21.9349C73.6898 20.9408 72.6957 20.0764 71.5287 19.9035C71.3991 19.8603 71.2262 19.8603 71.0965 19.8603C70.9669 19.817 70.794 19.8603 70.6643 19.8603C70.5347 19.8603 70.3618 19.8603 70.2321 19.9035C70.1025 19.9467 69.9296 19.9467 69.7999 19.9899C69.627 19.9899 69.4974 20.0764 69.3677 20.1196L68.8923 20.2492C68.5897 20.3789 68.2872 20.4654 67.9414 20.5518C67.8982 20.5518 67.855 20.5518 67.855 20.5086C67.855 20.4654 67.855 20.4654 67.855 20.4221C68.1143 20.206 68.3736 19.9899 68.633 19.7738C68.9355 19.6009 69.238 19.4281 69.5838 19.2984C70.2321 19.0391 71.0101 18.9526 71.7449 19.0823C72.4796 19.212 73.1711 19.6009 73.6466 20.0764C74.1652 20.595 74.511 21.2001 74.6839 21.8916C74.6839 21.9349 74.6839 21.9781 74.6406 21.9781C74.5974 21.9781 74.5542 21.9781 74.511 21.9349Z" fill="#0F062C"/>
</g>
</g>
<path id="Vector_41" d="M60.5509 16.2729C60.5509 16.2729 60.4644 13.2475 60.4644 11.5619C60.4212 9.87625 62.8416 5.33806 68.4171 5.55417C68.4171 5.55417 72.2205 2.22616 78.5307 4.77619C84.7978 7.32622 82.5935 14.4144 82.5935 14.4144C82.5935 14.4144 82.0316 16.4026 81.9884 16.5755C81.9884 16.5755 81.902 15.106 80.9079 13.9822C80.9079 13.9822 80.0435 17.1806 77.7095 17.1373C77.7095 17.1373 79.179 15.6246 78.574 13.5932C78.0553 11.7347 71.8315 12.3831 68.7196 13.2907C68.2874 13.4204 67.8984 13.7661 67.7688 14.1983C67.5527 14.8034 67.1204 15.8407 66.2992 17.1373C65.7806 17.9585 65.4781 18.5204 64.4408 18.9958C63.2306 19.6009 62.7984 16.2729 60.5509 16.2729Z" fill="#0F062C"/>
<path id="Vector_42" d="M72.3936 28.3315C72.3936 28.3315 72.7393 30.6655 74.9436 29.1527" stroke="#0F062C" stroke-width="0.433159" stroke-miterlimit="10" stroke-linecap="round" stroke-linejoin="round"/>
</g>
</g>
<path id="Vector 889" d="M55.9698 57.592L52.9443 42.897" stroke="#0F062C" stroke-width="0.432208"/>
<path id="Vector 890" d="M76.9316 60.4014C77.652 58.4565 79.0927 54.2208 79.0927 52.8378" stroke="#0F062C" stroke-width="0.432208"/>
<path id="Vector 891" d="M76.9312 60.4014C76.0668 63.4989 73.4304 69.9532 69.7998 70.9905" stroke="#0F062C" stroke-width="0.432208"/>
<g id="Group_23">
<g id="Group_24">
<g id="Group_25">
<path id="Vector_43" d="M107.921 40.6927H114.405L113.756 42.2486C113.41 43.1131 112.157 43.8478 110.947 43.8478C109.78 43.8478 109.088 43.1563 109.434 42.2919C109.78 41.4275 109.132 40.6927 107.921 40.6927Z" fill="#E0D6FF"/>
<g id="Group_26">
<path id="Vector_44" d="M98.7158 58.2403L105.113 42.2919C105.458 41.4275 106.712 40.7359 107.879 40.6927H107.922C109.132 40.6927 109.78 41.3842 109.435 42.2919C109.089 43.1563 109.78 43.8478 110.947 43.8478H138.738L132.558 58.2403H98.7158Z" fill="#F7F5FF"/>
<path id="Vector_45" d="M110.947 43.8478C112.114 43.8478 113.411 43.1563 113.757 42.2486L123.784 17.7424C124.13 16.878 125.426 16.1433 126.636 16.1433C127.847 16.1433 156.718 16.1433 156.718 16.1433L145.524 41.73C145.135 42.5944 143.665 43.8046 142.455 43.8046H110.947V43.8478Z" fill="#F7F5FF"/>
</g>
<path id="Vector_46" d="M126.636 16.1865H157.755C157.755 16.1865 160.392 16.878 160.392 19.5145H129.748C129.748 19.5145 129.921 16.1865 126.636 16.1865Z" fill="#E0D6FF"/>
</g>
</g>
<g id="Group_27">
<path id="Vector_47" d="M119.085 89.5H54.1429C51.6507 89.5 49.6377 87.7128 49.6377 85.5H123.638C121.769 88.6064 119.085 89.5 119.085 89.5Z" fill="#43434D"/>
<path id="Vector_48" d="M76.6382 89.5C78.2469 89.0181 79.5077 87.4277 79.6382 85.5" stroke="white" stroke-opacity="0.5" stroke-miterlimit="10"/>
<path id="Vector_49" d="M139.638 53.5H95.6319L79.6377 85.5H123.644L139.638 53.5Z" fill="#43434D"/>
<path id="Vector_50" d="M110.102 74.4272C111.462 74.4272 112.565 73.3242 112.565 71.9636C112.565 70.603 111.462 69.5 110.102 69.5C108.741 69.5 107.638 70.603 107.638 71.9636C107.638 73.3242 108.741 74.4272 110.102 74.4272Z" fill="white"/>
</g>
</g>
</g>
<rect id="Rectangle 5258" x="4.69092" y="88.6559" width="155.894" height="5.61217" rx="2.80608" fill="#E9E2FF"/>
</g>
<defs>
<clipPath id="clip0_184_1853">
<rect width="164" height="94.1597" fill="white" transform="translate(0.637695 0.420151)"/>
</clipPath>
</defs>
</svg>
