<svg xmlns="http://www.w3.org/2000/svg" xmlns:xlink="http://www.w3.org/1999/xlink" zoomAndPan="magnify" preserveAspectRatio="xMidYMid meet" version="1.0" viewBox="17.79 69.26 323.79 125.7"><defs><g/><clipPath id="6c9d9e8c72"><path d="M 272.808594 110.964844 L 291.621094 110.964844 L 291.621094 147.40625 L 272.808594 147.40625 Z M 272.808594 110.964844 " clip-rule="nonzero"/></clipPath><clipPath id="89ad695d71"><path d="M 291.621094 147.40625 L 322.777344 147.40625 L 322.777344 166.3125 L 291.621094 166.3125 Z M 291.621094 147.40625 " clip-rule="nonzero"/></clipPath><clipPath id="7630e7dfaa"><path d="M 291.621094 92.0625 L 322.777344 92.0625 L 322.777344 110.964844 L 291.621094 110.964844 Z M 291.621094 92.0625 " clip-rule="nonzero"/></clipPath><clipPath id="75a47a8d63"><path d="M 322.777344 110.964844 L 341.585938 110.964844 L 341.585938 147.40625 L 322.777344 147.40625 Z M 322.777344 110.964844 " clip-rule="nonzero"/></clipPath></defs><g fill="#ffffff" fill-opacity="1"><g transform="translate(13.169729, 166.841887)"><g><path d="M 56.53125 -61.5625 L 56.8125 -61.5625 L 56.8125 -72.296875 L 75.015625 -72.296875 L 75.015625 28.125 L 56 28.125 L 56 -8.96875 L 55.71875 -8.96875 C 52.007812 -1.71875 45.171875 1.90625 35.203125 1.90625 C 28.859375 1.90625 23.375 0.253906 18.75 -3.046875 C 14.132812 -6.359375 10.625 -10.800781 8.21875 -16.375 C 5.820312 -21.945312 4.625 -28.039062 4.625 -34.65625 C 4.625 -42.445312 5.867188 -49.332031 8.359375 -55.3125 C 10.847656 -61.289062 14.46875 -65.929688 19.21875 -69.234375 C 23.976562 -72.546875 29.664062 -74.203125 36.28125 -74.203125 C 40.539062 -74.203125 44.320312 -73.25 47.625 -71.34375 C 50.9375 -69.445312 53.90625 -66.1875 56.53125 -61.5625 Z M 40.359375 -14.140625 C 45.160156 -14.140625 49.035156 -15.945312 51.984375 -19.5625 C 54.929688 -23.1875 56.40625 -28.582031 56.40625 -35.75 C 56.40625 -42.71875 54.910156 -48.128906 51.921875 -51.984375 C 48.929688 -55.835938 44.941406 -57.765625 39.953125 -57.765625 C 34.972656 -57.765625 31.097656 -55.769531 28.328125 -51.78125 C 25.566406 -47.789062 24.1875 -42.128906 24.1875 -34.796875 C 24.1875 -21.023438 29.578125 -14.140625 40.359375 -14.140625 Z M 40.359375 -14.140625 "/></g></g></g><g fill="#ffffff" fill-opacity="1"><g transform="translate(92.128779, 166.841887)"><g><path d="M 38.1875 -19.03125 L 53.546875 -72.296875 L 73.796875 -72.296875 L 47.703125 0 L 27.71875 0 L 1.765625 -72.296875 L 22.96875 -72.296875 L 37.921875 -19.03125 Z M 38.1875 -19.03125 "/></g></g></g><g fill="#ffffff" fill-opacity="1"><g transform="translate(163.613201, 166.841887)"><g><path d="M 71.625 -2.859375 L 71.625 0 L 51.09375 0 C 50.007812 -3.164062 49.421875 -6.019531 49.328125 -8.5625 C 45.890625 -4.84375 42.3125 -2.164062 38.59375 -0.53125 C 34.882812 1.09375 30.671875 1.90625 25.953125 1.90625 C 19.335938 1.90625 14.015625 0.00390625 9.984375 -3.796875 C 5.953125 -7.609375 3.9375 -12.726562 3.9375 -19.15625 C 3.9375 -25.226562 5.585938 -30.28125 8.890625 -34.3125 C 12.203125 -38.34375 18.117188 -41.082031 26.640625 -42.53125 L 40.234375 -44.578125 C 43.671875 -45.117188 45.957031 -45.796875 47.09375 -46.609375 C 48.226562 -47.429688 48.796875 -48.789062 48.796875 -50.6875 C 48.796875 -53.40625 47.820312 -55.46875 45.875 -56.875 C 43.925781 -58.28125 40.726562 -58.984375 36.28125 -58.984375 C 29.125 -58.984375 25.226562 -55.628906 24.59375 -48.921875 L 6.25 -48.921875 C 6.976562 -57.171875 9.765625 -63.445312 14.609375 -67.75 C 19.453125 -72.050781 27.265625 -74.203125 38.046875 -74.203125 C 47.296875 -74.203125 54.5 -72.390625 59.65625 -68.765625 C 64.820312 -65.140625 67.40625 -60.15625 67.40625 -53.8125 L 67.40625 -13.453125 C 67.40625 -10.097656 67.742188 -7.628906 68.421875 -6.046875 C 69.109375 -4.460938 70.175781 -3.398438 71.625 -2.859375 Z M 48.796875 -26.234375 L 48.796875 -35.203125 C 47.160156 -34.203125 45.390625 -33.40625 43.484375 -32.8125 C 41.585938 -32.226562 38.828125 -31.664062 35.203125 -31.125 C 31.117188 -30.582031 28.054688 -29.472656 26.015625 -27.796875 C 23.984375 -26.117188 22.96875 -23.648438 22.96875 -20.390625 C 22.96875 -17.753906 23.78125 -15.644531 25.40625 -14.0625 C 27.039062 -12.476562 29.171875 -11.6875 31.796875 -11.6875 C 34.609375 -11.6875 37.328125 -12.296875 39.953125 -13.515625 C 42.578125 -14.742188 44.707031 -16.46875 46.34375 -18.6875 C 47.976562 -20.90625 48.796875 -23.421875 48.796875 -26.234375 Z M 48.796875 -26.234375 "/></g></g></g><g fill="#ffffff" fill-opacity="1"><g transform="translate(235.097617, 166.841887)"><g><path d="M 9.375 0 L 9.375 -97.578125 L 28.40625 -97.578125 L 28.40625 0 Z M 9.375 0 "/></g></g></g><g clip-path="url(#6c9d9e8c72)"><path fill="#ffffff" d="M 272.808594 110.964844 L 291.621094 110.964844 L 291.621094 147.414062 L 272.808594 147.414062 Z M 272.808594 110.964844 " fill-opacity="1" fill-rule="nonzero"/></g><g clip-path="url(#89ad695d71)"><path fill="#ffffff" d="M 291.621094 147.40625 L 322.785156 147.40625 L 322.785156 166.3125 L 291.621094 166.3125 Z M 291.621094 147.40625 " fill-opacity="1" fill-rule="nonzero"/></g><g clip-path="url(#7630e7dfaa)"><path fill="#ffffff" d="M 291.621094 92.0625 L 322.785156 92.0625 L 322.785156 110.964844 L 291.621094 110.964844 Z M 291.621094 92.0625 " fill-opacity="1" fill-rule="nonzero"/></g><g clip-path="url(#75a47a8d63)"><path fill="#ffffff" d="M 322.777344 110.964844 L 341.585938 110.964844 L 341.585938 147.414062 L 322.777344 147.414062 Z M 322.777344 110.964844 " fill-opacity="1" fill-rule="nonzero"/></g></svg>