<svg xmlns="http://www.w3.org/2000/svg" xmlns:xlink="http://www.w3.org/1999/xlink" zoomAndPan="magnify" preserveAspectRatio="xMidYMid meet" version="1.0" viewBox="23.58 79.53 293.85 132.67"><defs><g/></defs><g fill="#000000" fill-opacity="1"><g transform="translate(21.549664, 176.591887)"><g><path d="M 50.96875 -60.609375 L 50.96875 -66.734375 L 69.984375 -66.734375 L 69.984375 35.609375 L 50.96875 35.609375 L 50.96875 -6.25 L 50.6875 -6.25 C 48.695312 -3.53125 46.070312 -1.445312 42.8125 0 C 39.550781 1.445312 36.195312 2.171875 32.75 2.171875 C 24.050781 2.171875 16.753906 -1.242188 10.859375 -8.078125 C 4.972656 -14.921875 2.03125 -23.460938 2.03125 -33.703125 C 2.03125 -43.578125 4.972656 -51.910156 10.859375 -58.703125 C 16.753906 -65.503906 23.960938 -68.90625 32.484375 -68.90625 C 35.921875 -68.90625 39.289062 -68.179688 42.59375 -66.734375 C 45.90625 -65.285156 48.601562 -63.242188 50.6875 -60.609375 Z M 36.96875 -52.046875 C 32.707031 -52.046875 29.035156 -50.210938 25.953125 -46.546875 C 22.878906 -42.878906 21.34375 -38.507812 21.34375 -33.4375 C 21.34375 -28.269531 22.878906 -23.847656 25.953125 -20.171875 C 29.035156 -16.503906 32.753906 -14.671875 37.109375 -14.671875 C 41.628906 -14.671875 45.382812 -16.570312 48.375 -20.375 C 51.375 -24.1875 52.875 -28.539062 52.875 -33.4375 C 52.875 -38.507812 51.332031 -42.878906 48.25 -46.546875 C 45.164062 -50.210938 41.40625 -52.046875 36.96875 -52.046875 Z M 36.96875 -52.046875 "/></g></g></g><g fill="#000000" fill-opacity="1"><g transform="translate(98.33448, 176.591887)"><g><path d="M 18.484375 -66.734375 L 34.109375 -29.078125 L 47.84375 -66.734375 L 68.625 -66.734375 L 37.921875 1.359375 L 28.125 1.359375 L -2.453125 -66.734375 Z M 18.484375 -66.734375 "/></g></g></g><g fill="#000000" fill-opacity="1"><g transform="translate(216.8658, 110.722318)"><g><path d="M -18.484375 66.734375 L -34.109375 29.078125 L -47.84375 66.734375 L -68.625 66.734375 L -37.921875 -1.359375 L -28.125 -1.359375 L 2.453125 66.734375 Z M -18.484375 66.734375 "/></g></g></g><g fill="#000000" fill-opacity="1"><g transform="translate(245.133783, 175.841887)"><g><path d="M 2.171875 -33.296875 C 2.171875 -43.804688 5.476562 -52.367188 12.09375 -58.984375 C 18.707031 -65.597656 27.085938 -68.90625 37.234375 -68.90625 C 47.566406 -68.90625 55.992188 -65.550781 62.515625 -58.84375 C 69.035156 -52.144531 72.296875 -43.628906 72.296875 -33.296875 C 72.296875 -22.878906 69.007812 -14.363281 62.4375 -7.75 C 55.875 -1.132812 47.472656 2.171875 37.234375 2.171875 C 26.992188 2.171875 18.585938 -1.15625 12.015625 -7.8125 C 5.453125 -14.46875 2.171875 -22.960938 2.171875 -33.296875 Z M 37.109375 -52.046875 C 32.847656 -52.046875 29.175781 -50.210938 26.09375 -46.546875 C 23.007812 -42.878906 21.46875 -38.460938 21.46875 -33.296875 C 21.46875 -28.316406 23.007812 -23.96875 26.09375 -20.25 C 29.175781 -16.53125 32.890625 -14.671875 37.234375 -14.671875 C 41.765625 -14.671875 45.523438 -16.53125 48.515625 -20.25 C 51.503906 -23.96875 53 -28.316406 53 -33.296875 C 53 -38.191406 51.523438 -42.539062 48.578125 -46.34375 C 45.640625 -50.144531 41.816406 -52.046875 37.109375 -52.046875 Z M 37.109375 -52.046875 "/></g></g></g><g fill="#000000" fill-opacity="1"><g transform="translate(214.827178, 177.110276)"><g><path d="M 9.375 0 L 9.375 -97.578125 L 28.40625 -97.578125 L 28.40625 0 Z M 9.375 0 "/></g></g></g></svg>